<svg width="500" height="500" viewBox="0 0 500 500" fill="none" xmlns="http://www.w3.org/2000/svg">
<g clip-path="url(#clip0_44_91)">
<path d="M154.383 136.71V127.496L195.034 63.1772H201.719V77.4502H197.202L166.488 126.051V126.773H221.231V136.71H154.383ZM197.925 155.681V133.91V129.619V63.1772H208.584V155.681H197.925ZM268.33 156.945C261.525 156.945 255.728 155.093 250.94 151.39C246.153 147.656 242.494 142.251 239.965 135.174C237.435 128.068 236.17 119.486 236.17 109.429C236.17 99.4318 237.435 90.8951 239.965 83.8188C242.524 76.7124 246.198 71.2923 250.985 67.5584C255.803 63.7945 261.585 61.9125 268.33 61.9125C275.075 61.9125 280.841 63.7945 285.629 67.5584C290.447 71.2923 294.121 76.7124 296.65 83.8188C299.21 90.8951 300.489 99.4318 300.489 109.429C300.489 119.486 299.225 128.068 296.695 135.174C294.166 142.251 290.507 147.656 285.719 151.39C280.932 155.093 275.135 156.945 268.33 156.945ZM268.33 147.008C275.075 147.008 280.314 143.756 284.048 137.252C287.782 130.748 289.649 121.474 289.649 109.429C289.649 101.419 288.791 94.5988 287.074 88.9679C285.388 83.337 282.949 79.0461 279.757 76.0951C276.596 73.1442 272.786 71.6687 268.33 71.6687C261.645 71.6687 256.421 74.9659 252.657 81.5604C248.893 88.1248 247.011 97.4143 247.011 109.429C247.011 117.439 247.854 124.244 249.54 129.845C251.226 135.445 253.65 139.706 256.812 142.627C260.004 145.548 263.843 147.008 268.33 147.008ZM315.485 136.71V127.496L356.136 63.1772H362.821V77.4502H358.304L327.59 126.051V126.773H382.333V136.71H315.485ZM359.027 155.681V133.91V129.619V63.1772H369.686V155.681H359.027Z" fill="#047FBC"/>
<path d="M159.472 187.384L155.806 173.977H157.455L160.257 184.897H160.388L163.242 173.977H165.075L167.93 184.897H168.061L170.862 173.977H172.512L168.846 187.384H167.17L164.211 176.7H164.106L161.147 187.384H159.472ZM177.605 187.594C176.636 187.594 175.801 187.38 175.098 186.952C174.4 186.52 173.861 185.918 173.481 185.145C173.106 184.369 172.918 183.465 172.918 182.435C172.918 181.405 173.106 180.497 173.481 179.712C173.861 178.922 174.389 178.307 175.065 177.866C175.746 177.421 176.54 177.198 177.448 177.198C177.972 177.198 178.489 177.285 179 177.46C179.51 177.634 179.975 177.918 180.394 178.311C180.813 178.699 181.147 179.214 181.396 179.856C181.644 180.497 181.769 181.287 181.769 182.226V182.88H174.018V181.545H180.198C180.198 180.978 180.084 180.471 179.857 180.026C179.635 179.581 179.316 179.23 178.901 178.972C178.491 178.715 178.007 178.586 177.448 178.586C176.833 178.586 176.3 178.739 175.851 179.044C175.406 179.345 175.063 179.738 174.823 180.222C174.583 180.707 174.463 181.226 174.463 181.781V182.671C174.463 183.43 174.594 184.074 174.856 184.602C175.122 185.126 175.491 185.525 175.962 185.8C176.433 186.071 176.981 186.206 177.605 186.206C178.011 186.206 178.378 186.149 178.705 186.036C179.037 185.918 179.323 185.743 179.563 185.512C179.803 185.276 179.988 184.984 180.119 184.635L181.612 185.054C181.455 185.56 181.191 186.005 180.82 186.389C180.449 186.769 179.99 187.066 179.445 187.28C178.899 187.489 178.286 187.594 177.605 187.594ZM193.389 187.594C192.446 187.594 191.634 187.371 190.953 186.926C190.273 186.481 189.749 185.868 189.382 185.086C189.016 184.305 188.832 183.413 188.832 182.409C188.832 181.388 189.02 180.487 189.395 179.705C189.775 178.92 190.303 178.307 190.98 177.866C191.66 177.421 192.455 177.198 193.363 177.198C194.07 177.198 194.707 177.329 195.274 177.591C195.841 177.853 196.306 178.219 196.669 178.691C197.031 179.162 197.255 179.712 197.343 180.34H195.798C195.68 179.882 195.418 179.476 195.012 179.123C194.611 178.765 194.07 178.586 193.389 178.586C192.786 178.586 192.258 178.743 191.804 179.057C191.355 179.367 191.004 179.806 190.751 180.373C190.502 180.936 190.377 181.597 190.377 182.357C190.377 183.133 190.5 183.81 190.744 184.386C190.993 184.962 191.342 185.409 191.791 185.728C192.245 186.047 192.778 186.206 193.389 186.206C193.79 186.206 194.155 186.136 194.482 185.996C194.809 185.857 195.086 185.656 195.313 185.394C195.54 185.132 195.702 184.818 195.798 184.451H197.343C197.255 185.045 197.039 185.58 196.695 186.055C196.354 186.527 195.903 186.902 195.34 187.181C194.781 187.456 194.131 187.594 193.389 187.594ZM202.56 187.62C201.923 187.62 201.345 187.5 200.825 187.26C200.306 187.016 199.894 186.664 199.588 186.206C199.283 185.743 199.13 185.185 199.13 184.53C199.13 183.954 199.243 183.487 199.47 183.129C199.697 182.767 200.001 182.483 200.38 182.278C200.76 182.073 201.179 181.92 201.637 181.82C202.1 181.715 202.565 181.632 203.032 181.571C203.643 181.492 204.138 181.434 204.518 181.394C204.902 181.351 205.181 181.279 205.356 181.178C205.535 181.078 205.624 180.903 205.624 180.655V180.602C205.624 179.956 205.447 179.454 205.094 179.096C204.745 178.739 204.214 178.56 203.503 178.56C202.765 178.56 202.187 178.721 201.768 179.044C201.349 179.367 201.055 179.712 200.884 180.078L199.418 179.555C199.68 178.944 200.029 178.468 200.465 178.128C200.906 177.783 201.386 177.543 201.906 177.408C202.429 177.268 202.944 177.198 203.451 177.198C203.774 177.198 204.145 177.237 204.564 177.316C204.987 177.39 205.395 177.545 205.788 177.781C206.185 178.016 206.514 178.372 206.776 178.848C207.038 179.323 207.169 179.961 207.169 180.759V187.384H205.624V186.023H205.545C205.441 186.241 205.266 186.474 205.022 186.723C204.777 186.972 204.452 187.184 204.046 187.358C203.64 187.533 203.145 187.62 202.56 187.62ZM202.796 186.232C203.407 186.232 203.922 186.112 204.341 185.872C204.764 185.632 205.083 185.322 205.297 184.942C205.515 184.563 205.624 184.163 205.624 183.744V182.33C205.559 182.409 205.415 182.481 205.192 182.546C204.974 182.608 204.721 182.662 204.433 182.71C204.149 182.754 203.872 182.793 203.601 182.828C203.335 182.859 203.119 182.885 202.953 182.907C202.552 182.959 202.176 183.044 201.827 183.162C201.482 183.275 201.203 183.448 200.989 183.679C200.78 183.906 200.675 184.216 200.675 184.609C200.675 185.145 200.874 185.551 201.271 185.826C201.672 186.097 202.181 186.232 202.796 186.232ZM211.534 181.335V187.384H209.989V177.329H211.481V178.9H211.612C211.848 178.389 212.206 177.979 212.686 177.669C213.166 177.355 213.786 177.198 214.545 177.198C215.226 177.198 215.822 177.338 216.332 177.617C216.843 177.892 217.24 178.311 217.524 178.874C217.808 179.433 217.949 180.14 217.949 180.995V187.384H216.404V181.1C216.404 180.31 216.199 179.694 215.789 179.254C215.379 178.808 214.816 178.586 214.1 178.586C213.607 178.586 213.166 178.693 212.778 178.907C212.394 179.12 212.09 179.433 211.868 179.843C211.645 180.253 211.534 180.751 211.534 181.335ZM222.134 173.977V175.156C222.134 175.513 222.069 175.895 221.938 176.301C221.811 176.703 221.624 177.093 221.375 177.473C221.13 177.848 220.834 178.176 220.484 178.455L219.647 177.774C219.921 177.381 220.159 176.973 220.36 176.55C220.565 176.122 220.668 175.666 220.668 175.182V173.977H222.134ZM228.818 177.329V178.638H223.607V177.329H228.818ZM225.126 174.92H226.671V184.504C226.671 184.94 226.734 185.268 226.861 185.486C226.992 185.7 227.157 185.844 227.358 185.918C227.563 185.988 227.779 186.023 228.006 186.023C228.177 186.023 228.316 186.014 228.425 185.996C228.534 185.975 228.622 185.957 228.687 185.944L229.001 187.332C228.897 187.371 228.75 187.41 228.563 187.45C228.375 187.493 228.137 187.515 227.849 187.515C227.413 187.515 226.985 187.421 226.566 187.234C226.152 187.046 225.807 186.76 225.532 186.376C225.261 185.992 225.126 185.508 225.126 184.923V174.92ZM243.449 179.581L242.062 179.974C241.974 179.742 241.846 179.518 241.675 179.299C241.509 179.077 241.283 178.894 240.995 178.75C240.706 178.606 240.338 178.533 239.888 178.533C239.273 178.533 238.76 178.675 238.35 178.959C237.944 179.238 237.741 179.594 237.741 180.026C237.741 180.41 237.881 180.713 238.16 180.936C238.439 181.159 238.876 181.344 239.469 181.492L240.962 181.859C241.861 182.077 242.531 182.411 242.972 182.861C243.412 183.306 243.633 183.88 243.633 184.582C243.633 185.159 243.467 185.673 243.135 186.127C242.808 186.581 242.35 186.939 241.76 187.201C241.171 187.463 240.486 187.594 239.705 187.594C238.679 187.594 237.83 187.371 237.158 186.926C236.486 186.481 236.061 185.831 235.882 184.975L237.348 184.609C237.488 185.15 237.752 185.556 238.14 185.826C238.533 186.097 239.046 186.232 239.679 186.232C240.399 186.232 240.97 186.079 241.394 185.774C241.822 185.464 242.035 185.093 242.035 184.661C242.035 184.312 241.913 184.019 241.669 183.784C241.424 183.544 241.049 183.365 240.543 183.247L238.867 182.854C237.946 182.636 237.27 182.298 236.838 181.839C236.41 181.377 236.196 180.799 236.196 180.105C236.196 179.537 236.355 179.035 236.674 178.599C236.997 178.163 237.435 177.82 237.99 177.571C238.548 177.322 239.181 177.198 239.888 177.198C240.883 177.198 241.664 177.416 242.232 177.853C242.804 178.289 243.209 178.865 243.449 179.581ZM250.174 187.594C249.205 187.594 248.37 187.38 247.667 186.952C246.969 186.52 246.43 185.918 246.05 185.145C245.675 184.369 245.487 183.465 245.487 182.435C245.487 181.405 245.675 180.497 246.05 179.712C246.43 178.922 246.958 178.307 247.634 177.866C248.315 177.421 249.109 177.198 250.017 177.198C250.541 177.198 251.058 177.285 251.569 177.46C252.079 177.634 252.544 177.918 252.963 178.311C253.382 178.699 253.716 179.214 253.965 179.856C254.213 180.497 254.338 181.287 254.338 182.226V182.88H246.587V181.545H252.767C252.767 180.978 252.653 180.471 252.426 180.026C252.204 179.581 251.885 179.23 251.47 178.972C251.06 178.715 250.576 178.586 250.017 178.586C249.402 178.586 248.869 178.739 248.42 179.044C247.975 179.345 247.632 179.738 247.392 180.222C247.152 180.707 247.032 181.226 247.032 181.781V182.671C247.032 183.43 247.163 184.074 247.425 184.602C247.691 185.126 248.06 185.525 248.531 185.8C249.002 186.071 249.55 186.206 250.174 186.206C250.58 186.206 250.947 186.149 251.274 186.036C251.606 185.918 251.892 185.743 252.132 185.512C252.372 185.276 252.557 184.984 252.688 184.635L254.181 185.054C254.024 185.56 253.76 186.005 253.389 186.389C253.018 186.769 252.559 187.066 252.014 187.28C251.468 187.489 250.855 187.594 250.174 187.594ZM260.904 187.594C259.935 187.594 259.099 187.38 258.397 186.952C257.698 186.52 257.159 185.918 256.78 185.145C256.404 184.369 256.217 183.465 256.217 182.435C256.217 181.405 256.404 180.497 256.78 179.712C257.159 178.922 257.687 178.307 258.364 177.866C259.045 177.421 259.839 177.198 260.747 177.198C261.27 177.198 261.788 177.285 262.298 177.46C262.809 177.634 263.274 177.918 263.693 178.311C264.112 178.699 264.446 179.214 264.694 179.856C264.943 180.497 265.067 181.287 265.067 182.226V182.88H257.316V181.545H263.496C263.496 180.978 263.383 180.471 263.156 180.026C262.933 179.581 262.615 179.23 262.2 178.972C261.79 178.715 261.305 178.586 260.747 178.586C260.131 178.586 259.599 178.739 259.149 179.044C258.704 179.345 258.362 179.738 258.122 180.222C257.882 180.707 257.762 181.226 257.762 181.781V182.671C257.762 183.43 257.893 184.074 258.154 184.602C258.421 185.126 258.789 185.525 259.261 185.8C259.732 186.071 260.28 186.206 260.904 186.206C261.31 186.206 261.676 186.149 262.004 186.036C262.335 185.918 262.621 185.743 262.861 185.512C263.101 185.276 263.287 184.984 263.418 184.635L264.91 185.054C264.753 185.56 264.489 186.005 264.118 186.389C263.747 186.769 263.289 187.066 262.743 187.28C262.198 187.489 261.585 187.594 260.904 187.594ZM267.418 187.384V177.329H268.91V178.9H269.041C269.251 178.363 269.589 177.946 270.056 177.65C270.523 177.349 271.084 177.198 271.738 177.198C272.402 177.198 272.954 177.349 273.395 177.65C273.84 177.946 274.187 178.363 274.435 178.9H274.54C274.798 178.381 275.184 177.968 275.699 177.663C276.214 177.353 276.831 177.198 277.552 177.198C278.451 177.198 279.186 177.48 279.758 178.043C280.329 178.601 280.615 179.472 280.615 180.655V187.384H279.07V180.655C279.07 179.913 278.867 179.382 278.461 179.064C278.056 178.745 277.578 178.586 277.028 178.586C276.321 178.586 275.773 178.8 275.385 179.227C274.996 179.651 274.802 180.188 274.802 180.838V187.384H273.231V180.497C273.231 179.926 273.045 179.465 272.674 179.116C272.303 178.763 271.826 178.586 271.241 178.586C270.839 178.586 270.464 178.693 270.115 178.907C269.77 179.12 269.491 179.417 269.277 179.797C269.067 180.172 268.963 180.607 268.963 181.1V187.384H267.418ZM292.998 177.329V178.638H287.787V177.329H292.998ZM289.306 174.92H290.851V184.504C290.851 184.94 290.914 185.268 291.04 185.486C291.171 185.7 291.337 185.844 291.538 185.918C291.743 185.988 291.959 186.023 292.186 186.023C292.356 186.023 292.496 186.014 292.605 185.996C292.714 185.975 292.801 185.957 292.867 185.944L293.181 187.332C293.076 187.371 292.93 187.41 292.743 187.45C292.555 187.493 292.317 187.515 292.029 187.515C291.593 187.515 291.165 187.421 290.746 187.234C290.331 187.046 289.986 186.76 289.712 186.376C289.441 185.992 289.306 185.508 289.306 184.923V174.92ZM299.299 187.594C298.391 187.594 297.595 187.378 296.909 186.946C296.229 186.514 295.696 185.909 295.312 185.132C294.932 184.355 294.742 183.448 294.742 182.409C294.742 181.362 294.932 180.447 295.312 179.666C295.696 178.885 296.229 178.278 296.909 177.846C297.595 177.414 298.391 177.198 299.299 177.198C300.207 177.198 301.001 177.414 301.682 177.846C302.367 178.278 302.899 178.885 303.279 179.666C303.663 180.447 303.855 181.362 303.855 182.409C303.855 183.448 303.663 184.355 303.279 185.132C302.899 185.909 302.367 186.514 301.682 186.946C301.001 187.378 300.207 187.594 299.299 187.594ZM299.299 186.206C299.988 186.206 300.556 186.029 301.001 185.676C301.446 185.322 301.776 184.857 301.989 184.281C302.203 183.705 302.31 183.081 302.31 182.409C302.31 181.737 302.203 181.111 301.989 180.53C301.776 179.95 301.446 179.481 301.001 179.123C300.556 178.765 299.988 178.586 299.299 178.586C298.609 178.586 298.042 178.765 297.597 179.123C297.152 179.481 296.822 179.95 296.608 180.53C296.394 181.111 296.287 181.737 296.287 182.409C296.287 183.081 296.394 183.705 296.608 184.281C296.822 184.857 297.152 185.322 297.597 185.676C298.042 186.029 298.609 186.206 299.299 186.206ZM315.876 177.329V178.638H310.456V177.329H315.876ZM312.079 187.384V175.941C312.079 175.365 312.214 174.885 312.485 174.501C312.756 174.117 313.107 173.829 313.539 173.637C313.971 173.445 314.427 173.349 314.907 173.349C315.287 173.349 315.597 173.379 315.837 173.44C316.077 173.501 316.256 173.558 316.374 173.611L315.928 174.946C315.85 174.92 315.741 174.887 315.601 174.848C315.466 174.809 315.287 174.789 315.064 174.789C314.554 174.789 314.185 174.918 313.958 175.175C313.735 175.433 313.624 175.81 313.624 176.308V187.384H312.079ZM318.041 187.384V177.329H319.586V187.384H318.041ZM318.827 175.653C318.526 175.653 318.266 175.55 318.048 175.345C317.834 175.14 317.727 174.894 317.727 174.606C317.727 174.318 317.834 174.071 318.048 173.866C318.266 173.661 318.526 173.558 318.827 173.558C319.128 173.558 319.385 173.661 319.599 173.866C319.818 174.071 319.927 174.318 319.927 174.606C319.927 174.894 319.818 175.14 319.599 175.345C319.385 175.55 319.128 175.653 318.827 175.653ZM323.961 181.335V187.384H322.416V177.329H323.909V178.9H324.039C324.275 178.389 324.633 177.979 325.113 177.669C325.593 177.355 326.213 177.198 326.972 177.198C327.653 177.198 328.249 177.338 328.759 177.617C329.27 177.892 329.667 178.311 329.951 178.874C330.235 179.433 330.376 180.14 330.376 180.995V187.384H328.831V181.1C328.831 180.31 328.626 179.694 328.216 179.254C327.806 178.808 327.243 178.586 326.527 178.586C326.034 178.586 325.593 178.693 325.205 178.907C324.821 179.12 324.517 179.433 324.295 179.843C324.072 180.253 323.961 180.751 323.961 181.335ZM336.997 187.594C336.159 187.594 335.419 187.382 334.777 186.959C334.136 186.531 333.634 185.929 333.272 185.152C332.909 184.371 332.728 183.448 332.728 182.383C332.728 181.327 332.909 180.41 333.272 179.633C333.634 178.856 334.138 178.256 334.784 177.833C335.43 177.41 336.176 177.198 337.023 177.198C337.677 177.198 338.195 177.307 338.574 177.525C338.958 177.739 339.251 177.984 339.451 178.259C339.657 178.529 339.816 178.752 339.929 178.926H340.06V173.977H341.605V187.384H340.113V185.839H339.929C339.816 186.023 339.654 186.254 339.445 186.533C339.235 186.808 338.936 187.055 338.548 187.273C338.16 187.487 337.642 187.594 336.997 187.594ZM337.206 186.206C337.826 186.206 338.349 186.044 338.777 185.721C339.205 185.394 339.53 184.942 339.753 184.366C339.975 183.786 340.086 183.116 340.086 182.357C340.086 181.606 339.977 180.949 339.759 180.386C339.541 179.819 339.218 179.378 338.79 179.064C338.363 178.745 337.834 178.586 337.206 178.586C336.551 178.586 336.006 178.754 335.569 179.09C335.137 179.422 334.812 179.873 334.594 180.445C334.38 181.012 334.273 181.65 334.273 182.357C334.273 183.072 334.382 183.723 334.601 184.307C334.823 184.888 335.15 185.351 335.583 185.695C336.019 186.036 336.56 186.206 337.206 186.206ZM354.207 177.329V178.638H348.996V177.329H354.207ZM350.515 174.92H352.06V184.504C352.06 184.94 352.123 185.268 352.25 185.486C352.381 185.7 352.547 185.844 352.747 185.918C352.952 185.988 353.168 186.023 353.395 186.023C353.566 186.023 353.705 186.014 353.814 185.996C353.923 185.975 354.011 185.957 354.076 185.944L354.39 187.332C354.286 187.371 354.14 187.41 353.952 187.45C353.764 187.493 353.526 187.515 353.238 187.515C352.802 187.515 352.374 187.421 351.955 187.234C351.541 187.046 351.196 186.76 350.921 186.376C350.65 185.992 350.515 185.508 350.515 184.923V174.92ZM358.292 181.335V187.384H356.747V173.977H358.292V178.9H358.423C358.659 178.381 359.012 177.968 359.484 177.663C359.959 177.353 360.592 177.198 361.382 177.198C362.067 177.198 362.667 177.335 363.182 177.61C363.697 177.881 364.097 178.298 364.38 178.861C364.668 179.419 364.812 180.131 364.812 180.995V187.384H363.267V181.1C363.267 180.301 363.06 179.683 362.646 179.247C362.235 178.806 361.666 178.586 360.937 178.586C360.431 178.586 359.977 178.693 359.575 178.907C359.178 179.12 358.864 179.433 358.633 179.843C358.406 180.253 358.292 180.751 358.292 181.335ZM371.855 187.594C370.886 187.594 370.05 187.38 369.347 186.952C368.649 186.52 368.11 185.918 367.73 185.145C367.355 184.369 367.167 183.465 367.167 182.435C367.167 181.405 367.355 180.497 367.73 179.712C368.11 178.922 368.638 178.307 369.315 177.866C369.996 177.421 370.79 177.198 371.698 177.198C372.221 177.198 372.739 177.285 373.249 177.46C373.76 177.634 374.225 177.918 374.644 178.311C375.062 178.699 375.396 179.214 375.645 179.856C375.894 180.497 376.018 181.287 376.018 182.226V182.88H368.267V181.545H374.447C374.447 180.978 374.334 180.471 374.107 180.026C373.884 179.581 373.566 179.23 373.151 178.972C372.741 178.715 372.256 178.586 371.698 178.586C371.082 178.586 370.55 178.739 370.1 179.044C369.655 179.345 369.313 179.738 369.072 180.222C368.832 180.707 368.712 181.226 368.712 181.781V182.671C368.712 183.43 368.843 184.074 369.105 184.602C369.371 185.126 369.74 185.525 370.212 185.8C370.683 186.071 371.231 186.206 371.855 186.206C372.261 186.206 372.627 186.149 372.955 186.036C373.286 185.918 373.572 185.743 373.812 185.512C374.052 185.276 374.238 184.984 374.369 184.635L375.861 185.054C375.704 185.56 375.44 186.005 375.069 186.389C374.698 186.769 374.24 187.066 373.694 187.28C373.149 187.489 372.536 187.594 371.855 187.594Z" fill="#51C4F2"/>
<path d="M164.985 208.566V194.74H166.477V196.337H166.661C166.774 196.163 166.931 195.94 167.132 195.67C167.337 195.395 167.63 195.15 168.009 194.936C168.393 194.718 168.913 194.609 169.567 194.609C170.414 194.609 171.16 194.821 171.806 195.244C172.452 195.667 172.956 196.267 173.318 197.044C173.681 197.821 173.862 198.738 173.862 199.794C173.862 200.859 173.681 201.782 173.318 202.563C172.956 203.34 172.454 203.942 171.813 204.37C171.171 204.793 170.431 205.005 169.594 205.005C168.948 205.005 168.43 204.898 168.042 204.684C167.654 204.466 167.355 204.219 167.145 203.944C166.936 203.665 166.774 203.434 166.661 203.25H166.53V208.566H164.985ZM166.504 199.768C166.504 200.527 166.615 201.197 166.837 201.777C167.06 202.353 167.385 202.805 167.813 203.133C168.241 203.455 168.764 203.617 169.384 203.617C170.03 203.617 170.569 203.447 171.001 203.106C171.437 202.762 171.765 202.299 171.983 201.718C172.206 201.134 172.317 200.483 172.317 199.768C172.317 199.061 172.208 198.423 171.99 197.856C171.776 197.284 171.451 196.833 171.014 196.501C170.582 196.165 170.039 195.997 169.384 195.997C168.756 195.997 168.228 196.156 167.8 196.475C167.372 196.789 167.049 197.23 166.831 197.797C166.613 198.36 166.504 199.017 166.504 199.768ZM179.178 205.031C178.54 205.031 177.962 204.911 177.443 204.671C176.923 204.427 176.511 204.075 176.205 203.617C175.9 203.154 175.747 202.596 175.747 201.941C175.747 201.365 175.861 200.898 176.088 200.54C176.315 200.178 176.618 199.894 176.998 199.689C177.377 199.484 177.796 199.331 178.254 199.231C178.717 199.126 179.182 199.043 179.649 198.982C180.26 198.903 180.755 198.845 181.135 198.805C181.519 198.762 181.798 198.69 181.973 198.589C182.152 198.489 182.241 198.314 182.241 198.066V198.013C182.241 197.367 182.065 196.865 181.711 196.507C181.362 196.15 180.832 195.971 180.12 195.971C179.383 195.971 178.804 196.132 178.385 196.455C177.966 196.778 177.672 197.123 177.502 197.489L176.035 196.966C176.297 196.355 176.646 195.879 177.083 195.539C177.523 195.194 178.004 194.954 178.523 194.819C179.047 194.679 179.562 194.609 180.068 194.609C180.391 194.609 180.762 194.648 181.181 194.727C181.604 194.801 182.012 194.956 182.405 195.192C182.802 195.427 183.132 195.783 183.393 196.259C183.655 196.734 183.786 197.372 183.786 198.17V204.795H182.241V203.434H182.163C182.058 203.652 181.883 203.885 181.639 204.134C181.395 204.383 181.069 204.595 180.664 204.769C180.258 204.944 179.762 205.031 179.178 205.031ZM179.413 203.643C180.024 203.643 180.539 203.523 180.958 203.283C181.382 203.043 181.7 202.733 181.914 202.353C182.132 201.974 182.241 201.574 182.241 201.155V199.741C182.176 199.82 182.032 199.892 181.809 199.957C181.591 200.019 181.338 200.073 181.05 200.121C180.766 200.165 180.489 200.204 180.218 200.239C179.952 200.27 179.736 200.296 179.57 200.318C179.169 200.37 178.793 200.455 178.444 200.573C178.1 200.686 177.82 200.859 177.606 201.09C177.397 201.317 177.292 201.627 177.292 202.02C177.292 202.556 177.491 202.962 177.888 203.237C178.289 203.508 178.798 203.643 179.413 203.643ZM190.665 208.776C189.919 208.776 189.277 208.68 188.74 208.488C188.203 208.3 187.756 208.051 187.398 207.741C187.045 207.436 186.763 207.108 186.554 206.759L187.784 205.895C187.924 206.078 188.101 206.288 188.315 206.524C188.529 206.764 188.821 206.971 189.192 207.145C189.567 207.324 190.058 207.414 190.665 207.414C191.477 207.414 192.147 207.217 192.675 206.825C193.203 206.432 193.467 205.817 193.467 204.979V202.936H193.336C193.222 203.119 193.061 203.346 192.851 203.617C192.646 203.883 192.35 204.121 191.961 204.331C191.577 204.536 191.058 204.638 190.403 204.638C189.591 204.638 188.862 204.446 188.217 204.062C187.575 203.678 187.067 203.119 186.691 202.386C186.32 201.653 186.135 200.763 186.135 199.715C186.135 198.685 186.316 197.788 186.678 197.025C187.04 196.257 187.544 195.663 188.19 195.244C188.836 194.821 189.583 194.609 190.429 194.609C191.084 194.609 191.603 194.718 191.987 194.936C192.376 195.15 192.672 195.395 192.878 195.67C193.087 195.94 193.249 196.163 193.362 196.337H193.519V194.74H195.012V205.083C195.012 205.947 194.815 206.65 194.423 207.191C194.034 207.737 193.51 208.136 192.851 208.389C192.197 208.647 191.468 208.776 190.665 208.776ZM190.613 203.25C191.232 203.25 191.756 203.109 192.184 202.825C192.611 202.541 192.937 202.133 193.159 201.601C193.382 201.068 193.493 200.431 193.493 199.689C193.493 198.965 193.384 198.325 193.166 197.771C192.947 197.217 192.624 196.782 192.197 196.468C191.769 196.154 191.241 195.997 190.613 195.997C189.958 195.997 189.412 196.163 188.976 196.494C188.544 196.826 188.219 197.271 188.001 197.83C187.787 198.389 187.68 199.008 187.68 199.689C187.68 200.387 187.789 201.005 188.007 201.542C188.23 202.074 188.557 202.493 188.989 202.799C189.425 203.1 189.967 203.25 190.613 203.25ZM202.056 205.005C201.087 205.005 200.251 204.791 199.548 204.363C198.85 203.931 198.311 203.329 197.931 202.556C197.556 201.78 197.368 200.876 197.368 199.846C197.368 198.816 197.556 197.908 197.931 197.123C198.311 196.333 198.839 195.718 199.516 195.277C200.197 194.832 200.991 194.609 201.899 194.609C202.422 194.609 202.94 194.696 203.45 194.871C203.961 195.045 204.426 195.329 204.845 195.722C205.263 196.11 205.597 196.625 205.846 197.267C206.095 197.908 206.219 198.698 206.219 199.637V200.291H198.468V198.956H204.648C204.648 198.389 204.535 197.882 204.308 197.437C204.085 196.992 203.767 196.641 203.352 196.383C202.942 196.126 202.457 195.997 201.899 195.997C201.283 195.997 200.751 196.15 200.301 196.455C199.856 196.756 199.514 197.149 199.273 197.633C199.033 198.118 198.913 198.637 198.913 199.192V200.082C198.913 200.841 199.044 201.485 199.306 202.013C199.572 202.537 199.941 202.936 200.413 203.211C200.884 203.482 201.432 203.617 202.056 203.617C202.462 203.617 202.828 203.56 203.156 203.447C203.487 203.329 203.773 203.154 204.013 202.923C204.253 202.687 204.439 202.395 204.57 202.046L206.062 202.465C205.905 202.971 205.641 203.416 205.27 203.8C204.899 204.18 204.441 204.477 203.895 204.691C203.35 204.9 202.737 205.005 202.056 205.005ZM214.749 208.566C214.487 208.566 214.254 208.544 214.049 208.501C213.844 208.461 213.702 208.422 213.623 208.383L214.016 207.021C214.391 207.117 214.723 207.152 215.011 207.126C215.299 207.1 215.555 206.971 215.777 206.74C216.004 206.513 216.211 206.144 216.399 205.633L216.687 204.848L212.969 194.74H214.645L217.42 202.753H217.525L220.301 194.74H221.977L217.708 206.262C217.516 206.781 217.278 207.211 216.995 207.551C216.711 207.896 216.382 208.151 216.006 208.317C215.635 208.483 215.216 208.566 214.749 208.566ZM227.741 205.005C226.833 205.005 226.036 204.789 225.351 204.357C224.67 203.925 224.138 203.32 223.754 202.543C223.374 201.766 223.184 200.859 223.184 199.82C223.184 198.773 223.374 197.858 223.754 197.077C224.138 196.296 224.67 195.689 225.351 195.257C226.036 194.825 226.833 194.609 227.741 194.609C228.649 194.609 229.443 194.825 230.124 195.257C230.809 195.689 231.341 196.296 231.721 197.077C232.105 197.858 232.297 198.773 232.297 199.82C232.297 200.859 232.105 201.766 231.721 202.543C231.341 203.32 230.809 203.925 230.124 204.357C229.443 204.789 228.649 205.005 227.741 205.005ZM227.741 203.617C228.43 203.617 228.998 203.44 229.443 203.087C229.888 202.733 230.217 202.268 230.431 201.692C230.645 201.116 230.752 200.492 230.752 199.82C230.752 199.148 230.645 198.522 230.431 197.941C230.217 197.361 229.888 196.892 229.443 196.534C228.998 196.176 228.43 195.997 227.741 195.997C227.051 195.997 226.484 196.176 226.039 196.534C225.593 196.892 225.264 197.361 225.05 197.941C224.836 198.522 224.729 199.148 224.729 199.82C224.729 200.492 224.836 201.116 225.05 201.692C225.264 202.268 225.593 202.733 226.039 203.087C226.484 203.44 227.051 203.617 227.741 203.617ZM240.992 200.684V194.74H242.537V204.795H240.992V203.093H240.888C240.652 203.604 240.285 204.038 239.788 204.396C239.29 204.749 238.662 204.926 237.902 204.926C237.274 204.926 236.715 204.789 236.227 204.514C235.738 204.234 235.354 203.816 235.074 203.257C234.795 202.694 234.655 201.985 234.655 201.129V194.74H236.2V201.025C236.2 201.758 236.405 202.343 236.816 202.779C237.23 203.215 237.758 203.434 238.4 203.434C238.784 203.434 239.175 203.335 239.572 203.139C239.973 202.943 240.309 202.642 240.58 202.236C240.855 201.83 240.992 201.313 240.992 200.684ZM246.999 191.388V192.567C246.999 192.924 246.933 193.306 246.802 193.712C246.676 194.114 246.488 194.504 246.239 194.884C245.995 195.259 245.698 195.587 245.349 195.866L244.511 195.185C244.786 194.792 245.024 194.384 245.225 193.961C245.43 193.533 245.532 193.077 245.532 192.593V191.388H246.999ZM248.644 204.795V194.74H250.136V196.259H250.241C250.424 195.761 250.756 195.358 251.236 195.048C251.716 194.738 252.257 194.583 252.859 194.583C252.973 194.583 253.115 194.585 253.285 194.589C253.455 194.594 253.584 194.6 253.671 194.609V196.18C253.619 196.167 253.499 196.147 253.311 196.121C253.128 196.091 252.934 196.075 252.729 196.075C252.24 196.075 251.803 196.178 251.419 196.383C251.04 196.584 250.738 196.863 250.516 197.221C250.298 197.575 250.188 197.978 250.188 198.432V204.795H248.644ZM259.412 205.005C258.444 205.005 257.608 204.791 256.905 204.363C256.207 203.931 255.668 203.329 255.288 202.556C254.913 201.78 254.725 200.876 254.725 199.846C254.725 198.816 254.913 197.908 255.288 197.123C255.668 196.333 256.196 195.718 256.872 195.277C257.553 194.832 258.348 194.609 259.255 194.609C259.779 194.609 260.296 194.696 260.807 194.871C261.317 195.045 261.782 195.329 262.201 195.722C262.62 196.11 262.954 196.625 263.203 197.267C263.452 197.908 263.576 198.698 263.576 199.637V200.291H255.825V198.956H262.005C262.005 198.389 261.891 197.882 261.664 197.437C261.442 196.992 261.123 196.641 260.709 196.383C260.298 196.126 259.814 195.997 259.255 195.997C258.64 195.997 258.108 196.15 257.658 196.455C257.213 196.756 256.87 197.149 256.63 197.633C256.39 198.118 256.27 198.637 256.27 199.192V200.082C256.27 200.841 256.401 201.485 256.663 202.013C256.929 202.537 257.298 202.936 257.769 203.211C258.241 203.482 258.788 203.617 259.412 203.617C259.818 203.617 260.185 203.56 260.512 203.447C260.844 203.329 261.13 203.154 261.37 202.923C261.61 202.687 261.795 202.395 261.926 202.046L263.419 202.465C263.262 202.971 262.998 203.416 262.627 203.8C262.256 204.18 261.798 204.477 261.252 204.691C260.706 204.9 260.093 205.005 259.412 205.005ZM272.656 191.388V204.795H271.111V191.388H272.656ZM279.571 205.005C278.663 205.005 277.866 204.789 277.181 204.357C276.5 203.925 275.968 203.32 275.584 202.543C275.204 201.766 275.014 200.859 275.014 199.82C275.014 198.773 275.204 197.858 275.584 197.077C275.968 196.296 276.5 195.689 277.181 195.257C277.866 194.825 278.663 194.609 279.571 194.609C280.478 194.609 281.273 194.825 281.954 195.257C282.639 195.689 283.171 196.296 283.551 197.077C283.935 197.858 284.127 198.773 284.127 199.82C284.127 200.859 283.935 201.766 283.551 202.543C283.171 203.32 282.639 203.925 281.954 204.357C281.273 204.789 280.478 205.005 279.571 205.005ZM279.571 203.617C280.26 203.617 280.828 203.44 281.273 203.087C281.718 202.733 282.047 202.268 282.261 201.692C282.475 201.116 282.582 200.492 282.582 199.82C282.582 199.148 282.475 198.522 282.261 197.941C282.047 197.361 281.718 196.892 281.273 196.534C280.828 196.176 280.26 195.997 279.571 195.997C278.881 195.997 278.314 196.176 277.869 196.534C277.423 196.892 277.094 197.361 276.88 197.941C276.666 198.522 276.559 199.148 276.559 199.82C276.559 200.492 276.666 201.116 276.88 201.692C277.094 202.268 277.423 202.733 277.869 203.087C278.314 203.44 278.881 203.617 279.571 203.617ZM290.57 205.005C289.662 205.005 288.866 204.789 288.181 204.357C287.5 203.925 286.968 203.32 286.583 202.543C286.204 201.766 286.014 200.859 286.014 199.82C286.014 198.773 286.204 197.858 286.583 197.077C286.968 196.296 287.5 195.689 288.181 195.257C288.866 194.825 289.662 194.609 290.57 194.609C291.478 194.609 292.272 194.825 292.953 195.257C293.638 195.689 294.171 196.296 294.551 197.077C294.935 197.858 295.127 198.773 295.127 199.82C295.127 200.859 294.935 201.766 294.551 202.543C294.171 203.32 293.638 203.925 292.953 204.357C292.272 204.789 291.478 205.005 290.57 205.005ZM290.57 203.617C291.26 203.617 291.827 203.44 292.272 203.087C292.718 202.733 293.047 202.268 293.261 201.692C293.475 201.116 293.582 200.492 293.582 199.82C293.582 199.148 293.475 198.522 293.261 197.941C293.047 197.361 292.718 196.892 292.272 196.534C291.827 196.176 291.26 195.997 290.57 195.997C289.881 195.997 289.313 196.176 288.868 196.534C288.423 196.892 288.094 197.361 287.88 197.941C287.666 198.522 287.559 199.148 287.559 199.82C287.559 200.492 287.666 201.116 287.88 201.692C288.094 202.268 288.423 202.733 288.868 203.087C289.313 203.44 289.881 203.617 290.57 203.617ZM298.925 201.129L298.899 199.218H299.213L303.612 194.74H305.524L300.837 199.48H300.706L298.925 201.129ZM297.485 204.795V191.388H299.03V204.795H297.485ZM303.874 204.795L299.946 199.82L301.046 198.746L305.838 204.795H303.874ZM307.512 204.795V194.74H309.057V204.795H307.512ZM308.298 193.064C307.997 193.064 307.737 192.962 307.519 192.756C307.305 192.551 307.198 192.305 307.198 192.017C307.198 191.729 307.305 191.482 307.519 191.277C307.737 191.072 307.997 190.969 308.298 190.969C308.599 190.969 308.857 191.072 309.071 191.277C309.289 191.482 309.398 191.729 309.398 192.017C309.398 192.305 309.289 192.551 309.071 192.756C308.857 192.962 308.599 193.064 308.298 193.064ZM313.432 198.746V204.795H311.887V194.74H313.38V196.311H313.511C313.746 195.8 314.104 195.39 314.584 195.08C315.064 194.766 315.684 194.609 316.443 194.609C317.124 194.609 317.72 194.749 318.231 195.028C318.741 195.303 319.138 195.722 319.422 196.285C319.706 196.844 319.848 197.551 319.848 198.406V204.795H318.303V198.511C318.303 197.721 318.098 197.105 317.687 196.665C317.277 196.219 316.714 195.997 315.998 195.997C315.505 195.997 315.064 196.104 314.676 196.318C314.292 196.532 313.989 196.844 313.766 197.254C313.543 197.664 313.432 198.162 313.432 198.746ZM326.73 208.776C325.983 208.776 325.342 208.68 324.805 208.488C324.268 208.3 323.821 208.051 323.463 207.741C323.109 207.436 322.828 207.108 322.618 206.759L323.849 205.895C323.989 206.078 324.166 206.288 324.379 206.524C324.593 206.764 324.886 206.971 325.257 207.145C325.632 207.324 326.123 207.414 326.73 207.414C327.541 207.414 328.211 207.217 328.739 206.825C329.267 206.432 329.531 205.817 329.531 204.979V202.936H329.401C329.287 203.119 329.126 203.346 328.916 203.617C328.711 203.883 328.414 204.121 328.026 204.331C327.642 204.536 327.122 204.638 326.468 204.638C325.656 204.638 324.927 204.446 324.281 204.062C323.64 203.678 323.131 203.119 322.756 202.386C322.385 201.653 322.199 200.763 322.199 199.715C322.199 198.685 322.381 197.788 322.743 197.025C323.105 196.257 323.609 195.663 324.255 195.244C324.901 194.821 325.647 194.609 326.494 194.609C327.149 194.609 327.668 194.718 328.052 194.936C328.44 195.15 328.737 195.395 328.942 195.67C329.152 195.94 329.313 196.163 329.427 196.337H329.584V194.74H331.076V205.083C331.076 205.947 330.88 206.65 330.487 207.191C330.099 207.737 329.575 208.136 328.916 208.389C328.261 208.647 327.533 208.776 326.73 208.776ZM326.677 203.25C327.297 203.25 327.821 203.109 328.248 202.825C328.676 202.541 329.001 202.133 329.224 201.601C329.446 201.068 329.558 200.431 329.558 199.689C329.558 198.965 329.449 198.325 329.23 197.771C329.012 197.217 328.689 196.782 328.261 196.468C327.834 196.154 327.306 195.997 326.677 195.997C326.023 195.997 325.477 196.163 325.041 196.494C324.609 196.826 324.283 197.271 324.065 197.83C323.851 198.389 323.744 199.008 323.744 199.689C323.744 200.387 323.854 201.005 324.072 201.542C324.294 202.074 324.622 202.493 325.054 202.799C325.49 203.1 326.031 203.25 326.677 203.25ZM343.567 194.74V196.049H338.147V194.74H343.567ZM339.77 204.795V193.352C339.77 192.776 339.905 192.296 340.176 191.912C340.447 191.528 340.798 191.24 341.23 191.048C341.662 190.856 342.118 190.76 342.598 190.76C342.978 190.76 343.288 190.79 343.528 190.851C343.768 190.912 343.947 190.969 344.065 191.022L343.619 192.357C343.541 192.331 343.432 192.298 343.292 192.259C343.157 192.22 342.978 192.2 342.755 192.2C342.245 192.2 341.876 192.329 341.649 192.586C341.426 192.844 341.315 193.221 341.315 193.719V204.795H339.77ZM349.403 205.005C348.495 205.005 347.699 204.789 347.014 204.357C346.333 203.925 345.8 203.32 345.416 202.543C345.037 201.766 344.847 200.859 344.847 199.82C344.847 198.773 345.037 197.858 345.416 197.077C345.8 196.296 346.333 195.689 347.014 195.257C347.699 194.825 348.495 194.609 349.403 194.609C350.311 194.609 351.105 194.825 351.786 195.257C352.471 195.689 353.004 196.296 353.383 197.077C353.768 197.858 353.96 198.773 353.96 199.82C353.96 200.859 353.768 201.766 353.383 202.543C353.004 203.32 352.471 203.925 351.786 204.357C351.105 204.789 350.311 205.005 349.403 205.005ZM349.403 203.617C350.093 203.617 350.66 203.44 351.105 203.087C351.55 202.733 351.88 202.268 352.094 201.692C352.308 201.116 352.415 200.492 352.415 199.82C352.415 199.148 352.308 198.522 352.094 197.941C351.88 197.361 351.55 196.892 351.105 196.534C350.66 196.176 350.093 195.997 349.403 195.997C348.714 195.997 348.146 196.176 347.701 196.534C347.256 196.892 346.926 197.361 346.713 197.941C346.499 198.522 346.392 199.148 346.392 199.82C346.392 200.492 346.499 201.116 346.713 201.692C346.926 202.268 347.256 202.733 347.701 203.087C348.146 203.44 348.714 203.617 349.403 203.617ZM356.318 204.795V194.74H357.81V196.259H357.915C358.099 195.761 358.43 195.358 358.91 195.048C359.39 194.738 359.932 194.583 360.534 194.583C360.647 194.583 360.789 194.585 360.959 194.589C361.13 194.594 361.258 194.6 361.346 194.609V196.18C361.293 196.167 361.173 196.147 360.986 196.121C360.802 196.091 360.608 196.075 360.403 196.075C359.914 196.075 359.478 196.178 359.094 196.383C358.714 196.584 358.413 196.863 358.19 197.221C357.972 197.575 357.863 197.978 357.863 198.432V204.795H356.318ZM363.151 204.9C362.828 204.9 362.551 204.784 362.319 204.553C362.088 204.322 361.972 204.045 361.972 203.722C361.972 203.399 362.088 203.122 362.319 202.89C362.551 202.659 362.828 202.543 363.151 202.543C363.474 202.543 363.751 202.659 363.982 202.89C364.213 203.122 364.329 203.399 364.329 203.722C364.329 203.936 364.275 204.132 364.165 204.311C364.061 204.49 363.919 204.634 363.74 204.743C363.565 204.848 363.369 204.9 363.151 204.9Z" fill="#51C4F2"/>
<path d="M500 469.798H0V500H500V469.798Z" fill="#B46133"/>
<path d="M500 484.899H0V500H500V484.899Z" fill="#A55228"/>
<path d="M398.904 456.114C400.103 456.114 401.075 455.142 401.075 453.943C401.075 452.744 400.103 451.772 398.904 451.772C397.705 451.772 396.733 452.744 396.733 453.943C396.733 455.142 397.705 456.114 398.904 456.114Z" fill="#7C8B96"/>
<path d="M403.904 453.214H393.904C387.093 453.214 381.571 458.736 381.571 465.547H416.238C416.238 458.736 410.716 453.214 403.904 453.214Z" fill="#E1EAEF"/>
<path d="M411.986 469.798H385.822C383.474 469.798 381.571 467.895 381.571 465.547H416.238C416.238 467.895 414.334 469.798 411.986 469.798Z" fill="#BEC9D2"/>
<path d="M366.623 421.298H149.731C144.869 421.298 140.927 417.356 140.927 412.494V268.654C140.927 263.487 145.115 259.299 150.282 259.299H366.071C371.238 259.299 375.426 263.488 375.426 268.654V412.495C375.427 417.357 371.486 421.298 366.623 421.298Z" fill="#BEC9D2"/>
<path d="M366.427 268.298H149.927V412.298H366.427V268.298Z" fill="#047FBC"/>
<path d="M289.927 421.298H226.427V459.798H289.927V421.298Z" fill="#BEC9D2"/>
<path d="M289.927 421.298H226.427V428.395H289.927V421.298Z" fill="#A6B3BD"/>
<path d="M301.58 469.798H214.775V467.386C214.775 463.195 218.172 459.798 222.363 459.798H293.992C298.183 459.798 301.58 463.195 301.58 467.386V469.798Z" fill="#E1EAEF"/>
<path d="M140.927 394.702H375.427V412.494C375.427 417.356 371.485 421.298 366.623 421.298H149.731C144.869 421.298 140.927 417.356 140.927 412.494V394.702Z" fill="#929FA9"/>
<path d="M234.788 372.517H168.3C166.433 372.517 164.919 371.003 164.919 369.136V301.868C164.919 300.001 166.433 298.487 168.3 298.487H234.788C236.655 298.487 238.169 300.001 238.169 301.868V369.136C238.169 371.003 236.655 372.517 234.788 372.517Z" fill="#51C4F2"/>
<path d="M174.706 301.571H167.502V305.738H174.706V301.571Z" fill="#00B3E6"/>
<path d="M184.206 301.571H177.002V305.738H184.206V301.571Z" fill="#00B3E6"/>
<path d="M226.394 301.571H185.461V305.738H226.394V301.571Z" fill="#00B3E6"/>
<path d="M234.086 303.654C234.086 304.805 233.153 305.737 232.003 305.737C230.853 305.737 229.92 304.804 229.92 303.654C229.92 302.503 230.853 301.571 232.003 301.571C233.153 301.571 234.086 302.503 234.086 303.654Z" fill="#00B3E6"/>
<path d="M193.226 313.001H171.731V334.496H193.226V313.001Z" fill="#00B3E6"/>
<path d="M231.356 313.001H195.656V314.094H231.356V313.001Z" fill="#00B3E6"/>
<path d="M231.356 315.551H195.656V316.644H231.356V315.551Z" fill="#00B3E6"/>
<path d="M231.356 318.101H195.656V319.194H231.356V318.101Z" fill="#00B3E6"/>
<path d="M231.356 320.652H195.656V321.745H231.356V320.652Z" fill="#00B3E6"/>
<path d="M231.356 323.202H195.656V324.295H231.356V323.202Z" fill="#00B3E6"/>
<path d="M231.356 325.752H195.656V326.845H231.356V325.752Z" fill="#00B3E6"/>
<path d="M231.356 328.302H195.656V329.395H231.356V328.302Z" fill="#00B3E6"/>
<path d="M231.356 330.853H195.656V331.946H231.356V330.853Z" fill="#00B3E6"/>
<path d="M231.356 333.403H195.656V334.496H231.356V333.403Z" fill="#00B3E6"/>
<path d="M209.861 360.944H231.356V339.449H209.861V360.944Z" fill="#00B3E6"/>
<path d="M171.732 360.944H207.432V359.851H171.732V360.944Z" fill="#00B3E6"/>
<path d="M171.732 358.393H207.432V357.3H171.732V358.393Z" fill="#00B3E6"/>
<path d="M171.732 355.844H207.432V354.751H171.732V355.844Z" fill="#00B3E6"/>
<path d="M171.732 353.293H207.432V352.201H171.732V353.293Z" fill="#00B3E6"/>
<path d="M171.732 350.743H207.432V349.65H171.732V350.743Z" fill="#00B3E6"/>
<path d="M171.732 348.193H207.432V347.1H171.732V348.193Z" fill="#00B3E6"/>
<path d="M171.732 345.643H207.432V344.55H171.732V345.643Z" fill="#00B3E6"/>
<path d="M171.732 343.092H207.432V341.999H171.732V343.092Z" fill="#00B3E6"/>
<path d="M171.732 340.542H207.432V339.449H171.732V340.542Z" fill="#00B3E6"/>
<path d="M342.072 357.948H253.584C251.717 357.948 250.203 356.434 250.203 354.567V287.299C250.203 285.432 251.717 283.918 253.584 283.918H342.072C343.939 283.918 345.453 285.432 345.453 287.299V354.567C345.454 356.434 343.94 357.948 342.072 357.948Z" fill="#51C4F2"/>
<path d="M259.991 287.001H252.787V291.168H259.991V287.001Z" fill="#00B3E6"/>
<path d="M269.491 287.001H262.287V291.168H269.491V287.001Z" fill="#00B3E6"/>
<path d="M311.678 287.001H270.745V291.168H311.678V287.001Z" fill="#00B3E6"/>
<path d="M341.37 289.084C341.37 290.235 340.437 291.167 339.287 291.167C338.137 291.167 337.204 290.234 337.204 289.084C337.204 287.934 338.137 287.001 339.287 287.001C340.437 287.001 341.37 287.934 341.37 289.084Z" fill="#00B3E6"/>
<path d="M273.454 296.001H254.287V315.168H273.454V296.001Z" fill="#00B3E6"/>
<path d="M307.453 296.001H275.62V296.976H307.453V296.001Z" fill="#00B3E6"/>
<path d="M307.453 298.275H275.62V299.25H307.453V298.275Z" fill="#00B3E6"/>
<path d="M307.453 300.549H275.62V301.524H307.453V300.549Z" fill="#00B3E6"/>
<path d="M307.453 302.823H275.62V303.798H307.453V302.823Z" fill="#00B3E6"/>
<path d="M307.453 305.097H275.62V306.072H307.453V305.097Z" fill="#00B3E6"/>
<path d="M307.453 307.371H275.62V308.346H307.453V307.371Z" fill="#00B3E6"/>
<path d="M307.453 309.645H275.62V310.62H307.453V309.645Z" fill="#00B3E6"/>
<path d="M307.453 311.919H275.62V312.894H307.453V311.919Z" fill="#00B3E6"/>
<path d="M307.453 314.193H275.62V315.168H307.453V314.193Z" fill="#00B3E6"/>
<path d="M288.286 338.751H307.453V319.584H288.286V338.751Z" fill="#00B3E6"/>
<path d="M328.531 308.427H340.957V296.001H328.531V308.427Z" fill="#00B3E6"/>
<path d="M254.287 338.751H286.12V337.776H254.287V338.751Z" fill="#00B3E6"/>
<path d="M254.287 336.477H286.12V335.502H254.287V336.477Z" fill="#00B3E6"/>
<path d="M254.287 334.203H286.12V333.228H254.287V334.203Z" fill="#00B3E6"/>
<path d="M254.287 331.929H286.12V330.954H254.287V331.929Z" fill="#00B3E6"/>
<path d="M254.287 329.655H286.12V328.68H254.287V329.655Z" fill="#00B3E6"/>
<path d="M254.287 327.381H286.12V326.406H254.287V327.381Z" fill="#00B3E6"/>
<path d="M254.287 325.107H286.12V324.132H254.287V325.107Z" fill="#00B3E6"/>
<path d="M254.287 322.833H286.12V321.858H254.287V322.833Z" fill="#00B3E6"/>
<path d="M254.287 320.559H286.12V319.584H254.287V320.559Z" fill="#00B3E6"/>
<path d="M309.782 315.167H341.037V314.192H309.782V315.167Z" fill="#00B3E6"/>
<path d="M309.782 312.893H341.037V311.918H309.782V312.893Z" fill="#00B3E6"/>
<path d="M309.782 310.619H341.037V309.644H309.782V310.619Z" fill="#00B3E6"/>
<path d="M309.782 308.345H341.037V307.37H309.782V308.345Z" fill="#00B3E6"/>
<path d="M309.782 306.071H341.037V305.096H309.782V306.071Z" fill="#00B3E6"/>
<path d="M309.782 303.797H341.037V302.822H309.782V303.797Z" fill="#00B3E6"/>
<path d="M309.782 301.523H341.037V300.548H309.782V301.523Z" fill="#00B3E6"/>
<path d="M309.782 299.249H341.037V298.274H309.782V299.249Z" fill="#00B3E6"/>
<path d="M309.782 296.975H341.037V296H309.782V296.975Z" fill="#00B3E6"/>
<path d="M309.782 335.502H341.037V334.527H309.782V335.502Z" fill="#00B3E6"/>
<path d="M309.782 333.228H341.037V332.253H309.782V333.228Z" fill="#00B3E6"/>
<path d="M309.782 330.954H341.037V329.979H309.782V330.954Z" fill="#00B3E6"/>
<path d="M309.782 328.68H341.037V327.705H309.782V328.68Z" fill="#00B3E6"/>
<path d="M309.782 326.406H341.037V325.431H309.782V326.406Z" fill="#00B3E6"/>
<path d="M309.782 324.132H341.037V323.157H309.782V324.132Z" fill="#00B3E6"/>
<path d="M309.782 321.858H341.037V320.883H309.782V321.858Z" fill="#00B3E6"/>
<path d="M309.782 319.584H341.037V318.609H309.782V319.584Z" fill="#00B3E6"/>
<path d="M309.782 317.31H341.037V316.335H309.782V317.31Z" fill="#00B3E6"/>
<path d="M309.782 356.156H341.037V355.181H309.782V356.156Z" fill="#00B3E6"/>
<path d="M309.782 353.882H341.037V352.907H309.782V353.882Z" fill="#00B3E6"/>
<path d="M309.782 351.608H341.037V350.633H309.782V351.608Z" fill="#00B3E6"/>
<path d="M309.782 349.334H341.037V348.359H309.782V349.334Z" fill="#00B3E6"/>
<path d="M309.782 347.06H341.037V346.085H309.782V347.06Z" fill="#00B3E6"/>
<path d="M309.782 344.786H341.037V343.811H309.782V344.786Z" fill="#00B3E6"/>
<path d="M309.782 342.512H341.037V341.537H309.782V342.512Z" fill="#00B3E6"/>
<path d="M309.782 340.238H341.037V339.263H309.782V340.238Z" fill="#00B3E6"/>
<path d="M309.782 337.964H341.037V336.989H309.782V337.964Z" fill="#00B3E6"/>
<path d="M263.847 413.674C266.981 410.54 266.981 405.459 263.847 402.325C260.713 399.191 255.632 399.191 252.498 402.325C249.364 405.459 249.364 410.54 252.498 413.674C255.632 416.808 260.713 416.808 263.847 413.674Z" fill="#637079"/>
<path d="M258.177 266.579C259.327 266.579 260.26 265.646 260.26 264.496C260.26 263.346 259.327 262.413 258.177 262.413C257.027 262.413 256.094 263.346 256.094 264.496C256.094 265.646 257.027 266.579 258.177 266.579Z" fill="#525D65"/>
<path d="M310.018 387.407H206.336V394.702H310.018V387.407Z" fill="#51C4F2"/>
<path d="M215.578 392.635C218.735 392.635 221.294 390.076 221.294 386.919C221.294 383.762 218.735 381.203 215.578 381.203C212.421 381.203 209.862 383.762 209.862 386.919C209.862 390.076 212.421 392.635 215.578 392.635Z" fill="#00B3E6"/>
<path d="M232.828 392.635C235.985 392.635 238.544 390.076 238.544 386.919C238.544 383.762 235.985 381.203 232.828 381.203C229.671 381.203 227.112 383.762 227.112 386.919C227.112 390.076 229.671 392.635 232.828 392.635Z" fill="#00B3E6"/>
<path d="M250.078 392.635C253.235 392.635 255.794 390.076 255.794 386.919C255.794 383.762 253.235 381.203 250.078 381.203C246.921 381.203 244.362 383.762 244.362 386.919C244.362 390.076 246.921 392.635 250.078 392.635Z" fill="#00B3E6"/>
<path d="M267.328 392.635C270.485 392.635 273.044 390.076 273.044 386.919C273.044 383.762 270.485 381.203 267.328 381.203C264.171 381.203 261.612 383.762 261.612 386.919C261.612 390.076 264.171 392.635 267.328 392.635Z" fill="#00B3E6"/>
<path d="M284.578 392.635C287.735 392.635 290.294 390.076 290.294 386.919C290.294 383.762 287.735 381.203 284.578 381.203C281.421 381.203 278.862 383.762 278.862 386.919C278.862 390.076 281.421 392.635 284.578 392.635Z" fill="#00B3E6"/>
<path d="M301.828 392.635C304.985 392.635 307.544 390.076 307.544 386.919C307.544 383.762 304.985 381.203 301.828 381.203C298.671 381.203 296.112 383.762 296.112 386.919C296.112 390.076 298.671 392.635 301.828 392.635Z" fill="#00B3E6"/>
<path d="M191.01 457.214H40.735V354.207C40.735 350.101 44.064 346.772 48.17 346.772H183.575C187.681 346.772 191.01 350.101 191.01 354.207V457.214Z" fill="#CAD6DD"/>
<path d="M46.735 446.191V357.794C46.735 355.02 48.984 352.771 51.758 352.771H179.987C182.761 352.771 185.01 355.02 185.01 357.794V446.191C185.01 448.965 182.761 451.214 179.987 451.214H51.758C48.984 451.214 46.735 448.965 46.735 446.191Z" fill="#00B3E6"/>
<path d="M160.564 446.109H71.182V451.276H160.564V446.109Z" fill="#047FBC"/>
<path d="M77.86 449.859C79.9311 449.859 81.61 448.18 81.61 446.109C81.61 444.038 79.9311 442.359 77.86 442.359C75.7889 442.359 74.11 444.038 74.11 446.109C74.11 448.18 75.7889 449.859 77.86 449.859Z" fill="#51C4F2"/>
<path d="M90.531 449.859C92.6021 449.859 94.281 448.18 94.281 446.109C94.281 444.038 92.6021 442.359 90.531 442.359C88.4599 442.359 86.781 444.038 86.781 446.109C86.781 448.18 88.4599 449.859 90.531 449.859Z" fill="#51C4F2"/>
<path d="M103.202 449.859C105.273 449.859 106.952 448.18 106.952 446.109C106.952 444.038 105.273 442.359 103.202 442.359C101.131 442.359 99.452 444.038 99.452 446.109C99.452 448.18 101.131 449.859 103.202 449.859Z" fill="#51C4F2"/>
<path d="M115.873 449.859C117.944 449.859 119.623 448.18 119.623 446.109C119.623 444.038 117.944 442.359 115.873 442.359C113.802 442.359 112.123 444.038 112.123 446.109C112.123 448.18 113.802 449.859 115.873 449.859Z" fill="#51C4F2"/>
<path d="M128.543 449.859C130.614 449.859 132.293 448.18 132.293 446.109C132.293 444.038 130.614 442.359 128.543 442.359C126.472 442.359 124.793 444.038 124.793 446.109C124.793 448.18 126.472 449.859 128.543 449.859Z" fill="#51C4F2"/>
<path d="M141.214 449.859C143.285 449.859 144.964 448.18 144.964 446.109C144.964 444.038 143.285 442.359 141.214 442.359C139.143 442.359 137.464 444.038 137.464 446.109C137.464 448.18 139.143 449.859 141.214 449.859Z" fill="#51C4F2"/>
<path d="M153.885 449.859C155.956 449.859 157.635 448.18 157.635 446.109C157.635 444.038 155.956 442.359 153.885 442.359C151.814 442.359 150.135 444.038 150.135 446.109C150.135 448.18 151.814 449.859 153.885 449.859Z" fill="#51C4F2"/>
<path d="M201.544 457.214H30.201V463.506C30.201 466.981 33.018 469.798 36.493 469.798H195.252C198.727 469.798 201.544 466.981 201.544 463.506V457.214Z" fill="#CAD6DD"/>
<path d="M201.544 463.506H30.201C30.201 466.981 33.018 469.798 36.493 469.798H195.252C198.727 469.798 201.544 466.981 201.544 463.506Z" fill="#BEC9D2"/>
<path d="M48.392 455.609H38.603C37.716 455.609 36.998 456.328 36.998 457.214H49.998C49.998 456.328 49.279 455.609 48.392 455.609Z" fill="#637079"/>
<path d="M64.475 455.609H54.686C53.799 455.609 53.081 456.328 53.081 457.214H66.081C66.081 456.328 65.362 455.609 64.475 455.609Z" fill="#637079"/>
<path d="M80.559 455.609H70.77C69.883 455.609 69.165 456.328 69.165 457.214H82.165C82.164 456.328 81.445 455.609 80.559 455.609Z" fill="#637079"/>
<path d="M96.642 455.609H86.853C85.966 455.609 85.248 456.328 85.248 457.214H98.248C98.248 456.328 97.529 455.609 96.642 455.609Z" fill="#637079"/>
<path d="M112.725 455.609H102.936C102.049 455.609 101.331 456.328 101.331 457.214H114.331C114.331 456.328 113.612 455.609 112.725 455.609Z" fill="#637079"/>
<path d="M128.809 455.609H119.02C118.133 455.609 117.415 456.328 117.415 457.214H130.415C130.414 456.328 129.695 455.609 128.809 455.609Z" fill="#637079"/>
<path d="M144.892 455.609H135.103C134.216 455.609 133.498 456.328 133.498 457.214H146.498C146.498 456.328 145.779 455.609 144.892 455.609Z" fill="#637079"/>
<path d="M160.975 455.609H151.186C150.299 455.609 149.581 456.328 149.581 457.214H162.581C162.581 456.328 161.862 455.609 160.975 455.609Z" fill="#637079"/>
<path d="M177.059 455.609H167.27C166.383 455.609 165.665 456.328 165.665 457.214H178.665C178.664 456.328 177.945 455.609 177.059 455.609Z" fill="#637079"/>
<path d="M193.142 455.609H183.353C182.466 455.609 181.748 456.328 181.748 457.214H194.748C194.748 456.328 194.029 455.609 193.142 455.609Z" fill="#637079"/>
<path d="M126.078 460.456H105.668C104.773 460.456 104.047 459.73 104.047 458.835C104.047 457.94 104.773 457.214 105.668 457.214H126.078C126.973 457.214 127.699 457.94 127.699 458.835C127.698 459.73 126.973 460.456 126.078 460.456Z" fill="#BEC9D2"/>
<path d="M160.116 435.222H71.629C69.762 435.222 68.248 433.708 68.248 431.841V364.573C68.248 362.706 69.762 361.192 71.629 361.192H160.117C161.984 361.192 163.498 362.706 163.498 364.573V431.841C163.498 433.708 161.984 435.222 160.116 435.222Z" fill="#51C4F2"/>
<path d="M78.035 364.275H70.831V368.442H78.035V364.275Z" fill="#00B3E6"/>
<path d="M87.535 364.275H80.331V368.442H87.535V364.275Z" fill="#00B3E6"/>
<path d="M129.722 364.275H88.789V368.442H129.722V364.275Z" fill="#00B3E6"/>
<path d="M159.414 366.359C159.414 367.51 158.481 368.442 157.331 368.442C156.181 368.442 155.248 367.509 155.248 366.359C155.248 365.209 156.181 364.276 157.331 364.276C158.481 364.276 159.414 365.208 159.414 366.359Z" fill="#00B3E6"/>
<path d="M91.498 373.275H72.331V392.442H91.498V373.275Z" fill="#00B3E6"/>
<path d="M125.497 373.275H93.664V374.25H125.497V373.275Z" fill="#00B3E6"/>
<path d="M125.497 375.549H93.664V376.524H125.497V375.549Z" fill="#00B3E6"/>
<path d="M125.497 377.823H93.664V378.798H125.497V377.823Z" fill="#00B3E6"/>
<path d="M125.497 380.098H93.664V381.073H125.497V380.098Z" fill="#00B3E6"/>
<path d="M125.497 382.371H93.664V383.346H125.497V382.371Z" fill="#00B3E6"/>
<path d="M125.497 384.646H93.664V385.621H125.497V384.646Z" fill="#00B3E6"/>
<path d="M125.497 386.919H93.664V387.894H125.497V386.919Z" fill="#00B3E6"/>
<path d="M125.497 389.194H93.664V390.169H125.497V389.194Z" fill="#00B3E6"/>
<path d="M125.497 391.467H93.664V392.442H125.497V391.467Z" fill="#00B3E6"/>
<path d="M106.331 416.025H125.498V396.858H106.331V416.025Z" fill="#00B3E6"/>
<path d="M146.575 385.702H159.001V373.276H146.575V385.702Z" fill="#00B3E6"/>
<path d="M72.3313 416.025H104.164V415.05H72.3313V416.025Z" fill="#00B3E6"/>
<path d="M72.3313 413.751H104.164V412.776H72.3313V413.751Z" fill="#00B3E6"/>
<path d="M72.3313 411.477H104.164V410.502H72.3313V411.477Z" fill="#00B3E6"/>
<path d="M72.3313 409.203H104.164V408.228H72.3313V409.203Z" fill="#00B3E6"/>
<path d="M72.3313 406.929H104.164V405.954H72.3313V406.929Z" fill="#00B3E6"/>
<path d="M72.3313 404.655H104.164V403.68H72.3313V404.655Z" fill="#00B3E6"/>
<path d="M72.3313 402.381H104.164V401.406H72.3313V402.381Z" fill="#00B3E6"/>
<path d="M72.3313 400.107H104.164V399.132H72.3313V400.107Z" fill="#00B3E6"/>
<path d="M72.3313 397.833H104.164V396.858H72.3313V397.833Z" fill="#00B3E6"/>
<path d="M127.826 392.443H159.081V391.468H127.826V392.443Z" fill="#00B3E6"/>
<path d="M127.826 390.168H159.081V389.193H127.826V390.168Z" fill="#00B3E6"/>
<path d="M127.826 387.895H159.081V386.92H127.826V387.895Z" fill="#00B3E6"/>
<path d="M127.826 385.62H159.081V384.645H127.826V385.62Z" fill="#00B3E6"/>
<path d="M127.826 383.347H159.081V382.372H127.826V383.347Z" fill="#00B3E6"/>
<path d="M127.826 381.072H159.081V380.096H127.826V381.072Z" fill="#00B3E6"/>
<path d="M127.826 378.798H159.081V377.823H127.826V378.798Z" fill="#00B3E6"/>
<path d="M127.826 376.524H159.081V375.549H127.826V376.524Z" fill="#00B3E6"/>
<path d="M127.826 374.25H159.081V373.275H127.826V374.25Z" fill="#00B3E6"/>
<path d="M127.826 412.777H159.081V411.802H127.826V412.777Z" fill="#00B3E6"/>
<path d="M127.826 410.503H159.081V409.528H127.826V410.503Z" fill="#00B3E6"/>
<path d="M127.826 408.229H159.081V407.254H127.826V408.229Z" fill="#00B3E6"/>
<path d="M127.826 405.955H159.081V404.98H127.826V405.955Z" fill="#00B3E6"/>
<path d="M127.826 403.681H159.081V402.706H127.826V403.681Z" fill="#00B3E6"/>
<path d="M127.826 401.407H159.081V400.432H127.826V401.407Z" fill="#00B3E6"/>
<path d="M127.826 399.133H159.081V398.158H127.826V399.133Z" fill="#00B3E6"/>
<path d="M127.826 396.859H159.081V395.884H127.826V396.859Z" fill="#00B3E6"/>
<path d="M127.826 394.585H159.081V393.61H127.826V394.585Z" fill="#00B3E6"/>
<path d="M127.826 433.431H159.081V432.456H127.826V433.431Z" fill="#00B3E6"/>
<path d="M127.826 431.157H159.081V430.182H127.826V431.157Z" fill="#00B3E6"/>
<path d="M127.826 428.883H159.081V427.908H127.826V428.883Z" fill="#00B3E6"/>
<path d="M127.826 426.609H159.081V425.634H127.826V426.609Z" fill="#00B3E6"/>
<path d="M127.826 424.335H159.081V423.36H127.826V424.335Z" fill="#00B3E6"/>
<path d="M127.826 422.061H159.081V421.086H127.826V422.061Z" fill="#00B3E6"/>
<path d="M127.826 419.787H159.081V418.812H127.826V419.787Z" fill="#00B3E6"/>
<path d="M127.826 417.513H159.081V416.538H127.826V417.513Z" fill="#00B3E6"/>
<path d="M127.826 415.239H159.081V414.264H127.826V415.239Z" fill="#00B3E6"/>
<path d="M57.355 367.442H49.998V374.799H57.355V367.442Z" fill="#047FBC"/>
<path d="M57.355 377.394H49.998V384.751H57.355V377.394Z" fill="#047FBC"/>
<path d="M57.355 387.345H49.998V394.702H57.355V387.345Z" fill="#047FBC"/>
<path d="M57.355 397.297H49.998V404.654H57.355V397.297Z" fill="#047FBC"/>
<path d="M180.521 420.909H168.211V426.177H180.521V420.909Z" fill="#047FBC"/>
<path d="M180.521 428.035H168.211V433.303H180.521V428.035Z" fill="#047FBC"/>
<path d="M180.521 435.162H168.211V440.43H180.521V435.162Z" fill="#047FBC"/>
<path d="M114.414 351.442C115.242 351.442 115.914 350.77 115.914 349.942C115.914 349.114 115.242 348.442 114.414 348.442C113.586 348.442 112.914 349.114 112.914 349.942C112.914 350.77 113.586 351.442 114.414 351.442Z" fill="#637079"/>
<path d="M371.927 469.798H260.261V465.438C260.261 463.244 262.04 461.465 264.234 461.465H367.954C370.148 461.465 371.927 463.244 371.927 465.438V469.798Z" fill="#CAD6DD"/>
<path d="M371.928 465.632H260.261V469.799H371.928V465.632Z" fill="#BEC9D2"/>
<path d="M280.302 459.798H268.453C267.532 459.798 266.786 460.544 266.786 461.465H281.969C281.969 460.545 281.223 459.798 280.302 459.798Z" fill="#637079"/>
<path d="M301.052 459.798H289.203C288.282 459.798 287.536 460.544 287.536 461.465H302.719C302.719 460.545 301.973 459.798 301.052 459.798Z" fill="#637079"/>
<path d="M321.802 459.798H309.953C309.032 459.798 308.286 460.544 308.286 461.465H323.469C323.469 460.545 322.723 459.798 321.802 459.798Z" fill="#637079"/>
<path d="M342.552 459.798H330.703C329.782 459.798 329.036 460.544 329.036 461.465H344.219C344.219 460.545 343.473 459.798 342.552 459.798Z" fill="#637079"/>
<path d="M363.302 459.798H351.453C350.532 459.798 349.786 460.544 349.786 461.465H364.969C364.969 460.545 364.223 459.798 363.302 459.798Z" fill="#637079"/>
<path d="M465.206 469.798H425.154C422.618 469.798 420.562 467.742 420.562 465.206V391.769C420.562 389.233 422.618 387.177 425.154 387.177H465.206C467.742 387.177 469.798 389.233 469.798 391.769V465.206C469.799 467.742 467.743 469.798 465.206 469.798Z" fill="#CAD6DD"/>
<path d="M464.799 392.177H425.562V458.39H464.799V392.177Z" fill="#047FBC"/>
<path d="M449.01 464.14C449.01 466.255 447.295 467.97 445.18 467.97C443.065 467.97 441.35 466.255 441.35 464.14C441.35 462.025 443.065 460.31 445.18 460.31C447.295 460.31 449.01 462.025 449.01 464.14Z" fill="#A6B3BD"/>
<path d="M464.799 449.89H425.562V458.39H464.799V449.89Z" fill="#51C4F2"/>
<path d="M431.085 457.265C432.811 457.265 434.21 455.866 434.21 454.14C434.21 452.414 432.811 451.015 431.085 451.015C429.359 451.015 427.96 452.414 427.96 454.14C427.96 455.866 429.359 457.265 431.085 457.265Z" fill="#047FBC"/>
<path d="M440.618 457.265C442.344 457.265 443.743 455.866 443.743 454.14C443.743 452.414 442.344 451.015 440.618 451.015C438.892 451.015 437.493 452.414 437.493 454.14C437.493 455.866 438.892 457.265 440.618 457.265Z" fill="#047FBC"/>
<path d="M450.15 457.265C451.876 457.265 453.275 455.866 453.275 454.14C453.275 452.414 451.876 451.015 450.15 451.015C448.424 451.015 447.025 452.414 447.025 454.14C447.025 455.866 448.424 457.265 450.15 457.265Z" fill="#047FBC"/>
<path d="M459.683 457.265C461.409 457.265 462.808 455.866 462.808 454.14C462.808 452.414 461.409 451.015 459.683 451.015C457.957 451.015 456.558 452.414 456.558 454.14C456.558 455.866 457.957 457.265 459.683 457.265Z" fill="#047FBC"/>
<path d="M459.479 395.434H430.882V446.119H459.479V395.434Z" fill="#51C4F2"/>
<path d="M456.558 400.122H433.365V401.367H456.558V400.122Z" fill="#00B3E6"/>
<path d="M456.558 402.249H433.365V403.494H456.558V402.249Z" fill="#00B3E6"/>
<path d="M456.558 404.377H433.365V405.622H456.558V404.377Z" fill="#00B3E6"/>
<path d="M456.558 406.505H433.365V407.75H456.558V406.505Z" fill="#00B3E6"/>
<path d="M456.558 408.633H433.365V409.878H456.558V408.633Z" fill="#00B3E6"/>
<path d="M456.558 410.76H433.365V412.005H456.558V410.76Z" fill="#00B3E6"/>
<path d="M456.558 412.888H433.365V414.133H456.558V412.888Z" fill="#00B3E6"/>
<path d="M456.558 415.016H433.365V416.261H456.558V415.016Z" fill="#00B3E6"/>
<path d="M456.558 417.143H433.365V418.388H456.558V417.143Z" fill="#00B3E6"/>
<path d="M456.558 419.271H433.365V420.516H456.558V419.271Z" fill="#00B3E6"/>
<path d="M456.558 421.399H433.365V422.644H456.558V421.399Z" fill="#00B3E6"/>
<path d="M456.558 423.526H433.365V424.771H456.558V423.526Z" fill="#00B3E6"/>
<path d="M456.558 425.654H433.365V426.899H456.558V425.654Z" fill="#00B3E6"/>
<path d="M456.558 427.782H433.365V429.027H456.558V427.782Z" fill="#00B3E6"/>
<path d="M456.558 429.909H433.365V431.154H456.558V429.909Z" fill="#00B3E6"/>
<path d="M456.558 432.037H433.365V433.282H456.558V432.037Z" fill="#00B3E6"/>
<path d="M456.558 434.165H433.365V435.41H456.558V434.165Z" fill="#00B3E6"/>
<path d="M456.558 436.292H433.365V437.537H456.558V436.292Z" fill="#00B3E6"/>
<path d="M456.558 438.42H433.365V439.665H456.558V438.42Z" fill="#00B3E6"/>
<path d="M456.558 440.548H433.365V441.793H456.558V440.548Z" fill="#00B3E6"/>
<path d="M456.558 442.675H433.365V443.92H456.558V442.675Z" fill="#00B3E6"/>
<path d="M455.985 398.994H434.495C433.871 398.994 433.365 398.488 433.365 397.864C433.365 397.24 433.871 396.734 434.495 396.734H455.985C456.609 396.734 457.115 397.24 457.115 397.864C457.115 398.488 456.609 398.994 455.985 398.994Z" fill="#00B3E6"/>
</g>
<defs>
<clipPath id="clip0_44_91">
<rect width="500" height="500" fill="white"/>
</clipPath>
</defs>
</svg>
