<svg width="161" height="33" viewBox="0 0 161 33" fill="none" xmlns="http://www.w3.org/2000/svg">
<path d="M0 26.8C0 25.1199 0 24.2798 0.32698 23.638C0.614601 23.0735 1.07354 22.6146 1.63803 22.327C2.27976 22 3.11984 22 4.8 22H11.1528V33H0V26.8Z" fill="#18D6E2"/>
<rect x="11.1527" y="22" width="11.1528" height="11" fill="#1479F8"/>
<path d="M11.1527 15.8C11.1527 14.1198 11.1527 13.2798 11.4797 12.638C11.7673 12.0735 12.2263 11.6146 12.7907 11.327C13.4325 11 14.2726 11 15.9527 11H22.3055V22H11.1527V15.8Z" fill="#04E3AA"/>
<rect x="22.3055" y="11" width="11.1528" height="11" fill="#1B5FFB"/>
<rect x="22.3055" y="22" width="11.1528" height="11" fill="#CDE0FF"/>
<path d="M22.3055 4.8C22.3055 3.11984 22.3055 2.27976 22.6325 1.63803C22.9201 1.07354 23.3791 0.614601 23.9436 0.32698C24.5853 0 25.4254 0 27.1055 0H28.6583C30.3385 0 31.1786 0 31.8203 0.32698C32.3848 0.614601 32.8437 1.07354 33.1313 1.63803C33.4583 2.27976 33.4583 3.11984 33.4583 4.8V11H22.3055V4.8Z" fill="#07FC9B"/>
<path d="M50.6384 24.74C49.6917 24.74 48.8384 24.5933 48.0784 24.3C47.3184 23.9933 46.6717 23.5467 46.1384 22.96C45.605 22.36 45.1917 21.62 44.8984 20.74C44.605 19.8467 44.4584 18.8067 44.4584 17.62C44.4584 16.4467 44.605 15.4067 44.8984 14.5C45.1917 13.58 45.605 12.8133 46.1384 12.2C46.6717 11.5733 47.3184 11.1 48.0784 10.78C48.8384 10.46 49.6917 10.3 50.6384 10.3C51.9317 10.3 52.9984 10.5667 53.8384 11.1C54.6784 11.62 55.3517 12.4467 55.8584 13.58L53.2384 14.94C53.0517 14.3533 52.7584 13.8867 52.3584 13.54C51.9717 13.18 51.3984 13 50.6384 13C49.745 13 49.025 13.2933 48.4784 13.88C47.945 14.4533 47.6784 15.2933 47.6784 16.4V18.64C47.6784 19.7467 47.945 20.5933 48.4784 21.18C49.025 21.7533 49.745 22.04 50.6384 22.04C51.385 22.04 51.9784 21.84 52.4184 21.44C52.8717 21.0267 53.205 20.5333 53.4184 19.96L55.8984 21.4C55.3784 22.4667 54.6917 23.2933 53.8384 23.88C52.9984 24.4533 51.9317 24.74 50.6384 24.74ZM57.8657 24.5V14H60.8257V16.28H60.9257C60.9791 15.9867 61.0724 15.7067 61.2057 15.44C61.3391 15.16 61.5124 14.9133 61.7257 14.7C61.9524 14.4867 62.2191 14.32 62.5257 14.2C62.8324 14.0667 63.1924 14 63.6057 14H64.1257V16.76H63.3857C62.5191 16.76 61.8724 16.8733 61.4457 17.1C61.0324 17.3267 60.8257 17.7467 60.8257 18.36V24.5H57.8657ZM72.5084 14H75.2684L71.2284 26.12C70.9617 26.9333 70.5817 27.5333 70.0884 27.92C69.6084 28.3067 68.915 28.5 68.0084 28.5H66.1684V26.2H68.1484L68.5084 25.04L64.8284 14H67.7684L69.3084 18.9L70.0684 21.94H70.1884L70.9684 18.9L72.5084 14ZM76.772 14H79.732V15.76H79.832C79.9786 15.1733 80.312 14.6933 80.832 14.32C81.3653 13.9467 81.972 13.76 82.652 13.76C83.9853 13.76 84.992 14.2267 85.672 15.16C86.352 16.0933 86.692 17.4533 86.692 19.24C86.692 21.0267 86.352 22.3933 85.672 23.34C84.992 24.2733 83.9853 24.74 82.652 24.74C82.3053 24.74 81.9786 24.6867 81.672 24.58C81.3653 24.4867 81.0853 24.3533 80.832 24.18C80.592 23.9933 80.3853 23.78 80.212 23.54C80.0386 23.2867 79.912 23.02 79.832 22.74H79.732V28.5H76.772V14ZM81.672 22.34C82.232 22.34 82.692 22.1467 83.052 21.76C83.4253 21.36 83.612 20.8267 83.612 20.16V18.34C83.612 17.6733 83.4253 17.1467 83.052 16.76C82.692 16.36 82.232 16.16 81.672 16.16C81.112 16.16 80.6453 16.3 80.272 16.58C79.912 16.8467 79.732 17.22 79.732 17.7V20.8C79.732 21.28 79.912 21.66 80.272 21.94C80.6453 22.2067 81.112 22.34 81.672 22.34ZM92.5027 24.5C91.4761 24.5 90.6961 24.24 90.1627 23.72C89.6427 23.2 89.3827 22.44 89.3827 21.44V16.3H87.9027V14H88.6427C89.0427 14 89.3161 13.9067 89.4627 13.72C89.6094 13.52 89.6827 13.24 89.6827 12.88V11.16H92.3427V14H94.4227V16.3H92.3427V22.2H94.2627V24.5H92.5027ZM100.661 24.74C99.8875 24.74 99.1942 24.6133 98.5809 24.36C97.9809 24.1067 97.4675 23.74 97.0409 23.26C96.6275 22.78 96.3075 22.2 96.0809 21.52C95.8542 20.84 95.7409 20.08 95.7409 19.24C95.7409 18.4 95.8542 17.64 96.0809 16.96C96.3075 16.28 96.6275 15.7067 97.0409 15.24C97.4675 14.76 97.9809 14.3933 98.5809 14.14C99.1942 13.8867 99.8875 13.76 100.661 13.76C101.434 13.76 102.121 13.8867 102.721 14.14C103.334 14.3933 103.848 14.76 104.261 15.24C104.688 15.7067 105.014 16.28 105.241 16.96C105.468 17.64 105.581 18.4 105.581 19.24C105.581 20.08 105.468 20.84 105.241 21.52C105.014 22.2 104.688 22.78 104.261 23.26C103.848 23.74 103.334 24.1067 102.721 24.36C102.121 24.6133 101.434 24.74 100.661 24.74ZM100.661 22.4C101.248 22.4 101.701 22.22 102.021 21.86C102.341 21.5 102.501 20.9867 102.501 20.32V18.18C102.501 17.5133 102.341 17 102.021 16.64C101.701 16.28 101.248 16.1 100.661 16.1C100.074 16.1 99.6209 16.28 99.3009 16.64C98.9809 17 98.8209 17.5133 98.8209 18.18V20.32C98.8209 20.9867 98.9809 21.5 99.3009 21.86C99.6209 22.22 100.074 22.4 100.661 22.4ZM107.85 24.5V10.54H114.45C115.103 10.54 115.69 10.6533 116.21 10.88C116.73 11.0933 117.17 11.3933 117.53 11.78C117.903 12.1667 118.19 12.64 118.39 13.2C118.59 13.7467 118.69 14.3467 118.69 15C118.69 15.6667 118.59 16.2733 118.39 16.82C118.19 17.3667 117.903 17.8333 117.53 18.22C117.17 18.6067 116.73 18.9133 116.21 19.14C115.69 19.3533 115.103 19.46 114.45 19.46H110.89V24.5H107.85ZM110.89 16.82H114.09C114.543 16.82 114.897 16.7067 115.15 16.48C115.417 16.24 115.55 15.8933 115.55 15.44V14.56C115.55 14.1067 115.417 13.7667 115.15 13.54C114.897 13.3 114.543 13.18 114.09 13.18H110.89V16.82ZM124.804 24.74C124.004 24.74 123.291 24.6133 122.664 24.36C122.038 24.0933 121.504 23.7267 121.064 23.26C120.638 22.78 120.311 22.2 120.084 21.52C119.871 20.84 119.764 20.08 119.764 19.24C119.764 18.4133 119.871 17.6667 120.084 17C120.298 16.32 120.611 15.74 121.024 15.26C121.451 14.78 121.971 14.4133 122.584 14.16C123.198 13.8933 123.898 13.76 124.684 13.76C125.551 13.76 126.291 13.9067 126.904 14.2C127.531 14.4933 128.038 14.8867 128.424 15.38C128.824 15.8733 129.111 16.4467 129.284 17.1C129.471 17.74 129.564 18.4133 129.564 19.12V20H122.824V20.16C122.824 20.8533 123.011 21.4067 123.384 21.82C123.758 22.22 124.344 22.42 125.144 22.42C125.758 22.42 126.258 22.3 126.644 22.06C127.031 21.8067 127.391 21.5067 127.724 21.16L129.204 23C128.738 23.5467 128.124 23.9733 127.364 24.28C126.618 24.5867 125.764 24.74 124.804 24.74ZM124.744 15.94C124.144 15.94 123.671 16.14 123.324 16.54C122.991 16.9267 122.824 17.4467 122.824 18.1V18.26H126.504V18.08C126.504 17.44 126.358 16.9267 126.064 16.54C125.784 16.14 125.344 15.94 124.744 15.94ZM138.095 22.74H137.995C137.915 23.02 137.788 23.2867 137.615 23.54C137.441 23.78 137.228 23.9933 136.975 24.18C136.735 24.3533 136.455 24.4867 136.135 24.58C135.828 24.6867 135.508 24.74 135.175 24.74C133.841 24.74 132.835 24.2733 132.155 23.34C131.475 22.3933 131.135 21.0267 131.135 19.24C131.135 17.4533 131.475 16.0933 132.155 15.16C132.835 14.2267 133.841 13.76 135.175 13.76C135.855 13.76 136.455 13.9467 136.975 14.32C137.508 14.6933 137.848 15.1733 137.995 15.76H138.095V9.7H141.055V24.5H138.095V22.74ZM136.155 22.34C136.715 22.34 137.175 22.2067 137.535 21.94C137.908 21.66 138.095 21.28 138.095 20.8V17.7C138.095 17.22 137.908 16.8467 137.535 16.58C137.175 16.3 136.715 16.16 136.155 16.16C135.595 16.16 135.128 16.36 134.755 16.76C134.395 17.1467 134.215 17.6733 134.215 18.34V20.16C134.215 20.8267 134.395 21.36 134.755 21.76C135.128 22.1467 135.595 22.34 136.155 22.34ZM145.303 12.88C144.703 12.88 144.263 12.7467 143.983 12.48C143.716 12.2 143.583 11.8467 143.583 11.42V10.98C143.583 10.5533 143.716 10.2067 143.983 9.94C144.263 9.66 144.703 9.52 145.303 9.52C145.903 9.52 146.336 9.66 146.603 9.94C146.883 10.2067 147.023 10.5533 147.023 10.98V11.42C147.023 11.8467 146.883 12.2 146.603 12.48C146.336 12.7467 145.903 12.88 145.303 12.88ZM143.823 14H146.783V24.5H143.823V14ZM157.305 24.5C156.772 24.5 156.325 24.3333 155.965 24C155.619 23.6667 155.399 23.22 155.305 22.66H155.185C155.025 23.34 154.672 23.86 154.125 24.22C153.579 24.5667 152.905 24.74 152.105 24.74C151.052 24.74 150.245 24.46 149.685 23.9C149.125 23.34 148.845 22.6 148.845 21.68C148.845 20.5733 149.245 19.7533 150.045 19.22C150.859 18.6733 151.959 18.4 153.345 18.4H155.005V17.74C155.005 17.2333 154.872 16.8333 154.605 16.54C154.339 16.2333 153.892 16.08 153.265 16.08C152.679 16.08 152.212 16.2067 151.865 16.46C151.519 16.7133 151.232 17 151.005 17.32L149.245 15.76C149.672 15.1333 150.205 14.6467 150.845 14.3C151.499 13.94 152.379 13.76 153.485 13.76C154.979 13.76 156.099 14.0867 156.845 14.74C157.592 15.3933 157.965 16.3467 157.965 17.6V22.2H158.945V24.5H157.305ZM153.205 22.68C153.699 22.68 154.119 22.5733 154.465 22.36C154.825 22.1467 155.005 21.8 155.005 21.32V20.08H153.565C152.405 20.08 151.825 20.4733 151.825 21.26V21.56C151.825 21.9467 151.945 22.2333 152.185 22.42C152.425 22.5933 152.765 22.68 153.205 22.68Z" fill="#1479F8"/>
</svg>
