<svg width="161" height="33" viewBox="0 0 161 33" fill="none" xmlns="http://www.w3.org/2000/svg">
<path d="M0 26.8C0 25.1199 0 24.2798 0.32698 23.638C0.614601 23.0735 1.07354 22.6146 1.63803 22.327C2.27976 22 3.11984 22 4.8 22H11.1528V33H0V26.8Z" fill="#18D6E2"/>
<rect x="11.1527" y="22" width="11.1528" height="11" fill="#1479F8"/>
<path d="M11.1527 15.8C11.1527 14.1198 11.1527 13.2798 11.4797 12.638C11.7673 12.0735 12.2263 11.6146 12.7907 11.327C13.4325 11 14.2726 11 15.9527 11H22.3055V22H11.1527V15.8Z" fill="#04E3AA"/>
<rect x="22.3055" y="11" width="11.1528" height="11" fill="#1B5FFB"/>
<rect x="22.3055" y="22" width="11.1528" height="11" fill="#CDE0FF"/>
<path d="M22.3055 4.8C22.3055 3.11984 22.3055 2.27976 22.6325 1.63803C22.9201 1.07354 23.3791 0.614601 23.9436 0.32698C24.5853 0 25.4254 0 27.1055 0H28.6583C30.3385 0 31.1786 0 31.8203 0.32698C32.3848 0.614601 32.8437 1.07354 33.1313 1.63803C33.4583 2.27976 33.4583 3.11984 33.4583 4.8V11H22.3055V4.8Z" fill="#07FC9B"/>
<path d="M50.6384 24.74C49.6917 24.74 48.8384 24.5933 48.0784 24.3C47.3184 23.9933 46.6717 23.5467 46.1384 22.96C45.605 22.36 45.1917 21.62 44.8984 20.74C44.605 19.8467 44.4584 18.8067 44.4584 17.62C44.4584 16.4467 44.605 15.4067 44.8984 14.5C45.1917 13.58 45.605 12.8133 46.1384 12.2C46.6717 11.5733 47.3184 11.1 48.0784 10.78C48.8384 10.46 49.6917 10.3 50.6384 10.3C51.9317 10.3 52.9984 10.5667 53.8384 11.1C54.6784 11.62 55.3517 12.4467 55.8584 13.58L53.2384 14.94C53.0517 14.3533 52.7584 13.8867 52.3584 13.54C51.9717 13.18 51.3984 13 50.6384 13C49.745 13 49.025 13.2933 48.4784 13.88C47.945 14.4533 47.6784 15.2933 47.6784 16.4V18.64C47.6784 19.7467 47.945 20.5933 48.4784 21.18C49.025 21.7533 49.745 22.04 50.6384 22.04C51.385 22.04 51.9784 21.84 52.4184 21.44C52.8717 21.0267 53.205 20.5333 53.4184 19.96L55.8984 21.4C55.3784 22.4667 54.6917 23.2933 53.8384 23.88C52.9984 24.4533 51.9317 24.74 50.6384 24.74ZM57.8657 24.5V14H60.8257V16.28H60.9257C60.9791 15.9867 61.0724 15.7067 61.2057 15.44C61.3391 15.16 61.5124 14.9133 61.7257 14.7C61.9524 14.4867 62.2191 14.32 62.5257 14.2C62.8324 14.0667 63.1924 14 63.6057 14H64.1257V16.76H63.3857C62.5191 16.76 61.8724 16.8733 61.4457 17.1C61.0324 17.3267 60.8257 17.7467 60.8257 18.36V24.5H57.8657ZM72.5084 14H75.2684L71.2284 26.12C70.9617 26.9333 70.5817 27.5333 70.0884 27.92C69.6084 28.3067 68.915 28.5 68.0084 28.5H66.1684V26.2H68.1484L68.5084 25.04L64.8284 14H67.7684L69.3084 18.9L70.0684 21.94H70.1884L70.9684 18.9L72.5084 14ZM76.772 14H79.732V15.76H79.832C79.9786 15.1733 80.312 14.6933 80.832 14.32C81.3653 13.9467 81.972 13.76 82.652 13.76C83.9853 13.76 84.992 14.2267 85.672 15.16C86.352 16.0933 86.692 17.4533 86.692 19.24C86.692 21.0267 86.352 22.3933 85.672 23.34C84.992 24.2733 83.9853 24.74 82.652 24.74C82.3053 24.74 81.9786 24.6867 81.672 24.58C81.3653 24.4867 81.0853 24.3533 80.832 24.18C80.592 23.9933 80.3853 23.78 80.212 23.54C80.0386 23.2867 79.912 23.02 79.832 22.74H79.732V28.5H76.772V14ZM81.672 22.34C82.232 22.34 82.692 22.1467 83.052 21.76C83.4253 21.36 83.612 20.8267 83.612 20.16V18.34C83.612 17.6733 83.4253 17.1467 83.052 16.76C82.692 16.36 82.232 16.16 81.672 16.16C81.112 16.16 80.6453 16.3 80.272 16.58C79.912 16.8467 79.732 17.22 79.732 17.7V20.8C79.732 21.28 79.912 21.66 80.272 21.94C80.6453 22.2067 81.112 22.34 81.672 22.34ZM92.5027 24.5C91.4761 24.5 90.6961 24.24 90.1627 23.72C89.6427 23.2 89.3827 22.44 89.3827 21.44V16.3H87.9027V14H88.6427C89.0427 14 89.3161 13.9067 89.4627 13.72C89.6094 13.52 89.6827 13.24 89.6827 12.88V11.16H92.3427V14H94.4227V16.3H92.3427V22.2H94.2627V24.5H92.5027ZM100.661 24.74C99.8875 24.74 99.1942 24.6133 98.5809 24.36C97.9809 24.1067 97.4675 23.74 97.0409 23.26C96.6275 22.78 96.3075 22.2 96.0809 21.52C95.8542 20.84 95.7409 20.08 95.7409 19.24C95.7409 18.4 95.8542 17.64 96.0809 16.96C96.3075 16.28 96.6275 15.7067 97.0409 15.24C97.4675 14.76 97.9809 14.3933 98.5809 14.14C99.1942 13.8867 99.8875 13.76 100.661 13.76C101.434 13.76 102.121 13.8867 102.721 14.14C103.334 14.3933 103.848 14.76 104.261 15.24C104.688 15.7067 105.014 16.28 105.241 16.96C105.468 17.64 105.581 18.4 105.581 19.24C105.581 20.08 105.468 20.84 105.241 21.52C105.014 22.2 104.688 22.78 104.261 23.26C103.848 23.74 103.334 24.1067 102.721 24.36C102.121 24.6133 101.434 24.74 100.661 24.74ZM100.661 22.4C101.248 22.4 101.701 22.22 102.021 21.86C102.341 21.5 102.501 20.9867 102.501 20.32V18.18C102.501 17.5133 102.341 17 102.021 16.64C101.701 16.28 101.248 16.1 100.661 16.1C100.074 16.1 99.6209 16.28 99.3009 16.64C98.9809 17 98.8209 17.5133 98.8209 18.18V20.32C98.8209 20.9867 98.9809 21.5 99.3009 21.86C99.6209 22.22 100.074 22.4 100.661 22.4ZM112.361 13.24V24.5H109.321V13.24H105.541V10.54H116.141V13.24H112.361ZM117.163 24.5V14H120.123V16.28H120.223C120.276 15.9867 120.369 15.7067 120.503 15.44C120.636 15.16 120.809 14.9133 121.023 14.7C121.249 14.4867 121.516 14.32 121.823 14.2C122.129 14.0667 122.489 14 122.903 14H123.423V16.76H122.683C121.816 16.76 121.169 16.8733 120.743 17.1C120.329 17.3267 120.123 17.7467 120.123 18.36V24.5H117.163ZM132.735 24.5C132.202 24.5 131.755 24.3333 131.395 24C131.048 23.6667 130.828 23.22 130.735 22.66H130.615C130.455 23.34 130.102 23.86 129.555 24.22C129.008 24.5667 128.335 24.74 127.535 24.74C126.482 24.74 125.675 24.46 125.115 23.9C124.555 23.34 124.275 22.6 124.275 21.68C124.275 20.5733 124.675 19.7533 125.475 19.22C126.288 18.6733 127.388 18.4 128.775 18.4H130.435V17.74C130.435 17.2333 130.302 16.8333 130.035 16.54C129.768 16.2333 129.322 16.08 128.695 16.08C128.108 16.08 127.642 16.2067 127.295 16.46C126.948 16.7133 126.662 17 126.435 17.32L124.675 15.76C125.102 15.1333 125.635 14.6467 126.275 14.3C126.928 13.94 127.808 13.76 128.915 13.76C130.408 13.76 131.528 14.0867 132.275 14.74C133.022 15.3933 133.395 16.3467 133.395 17.6V22.2H134.375V24.5H132.735ZM128.635 22.68C129.128 22.68 129.548 22.5733 129.895 22.36C130.255 22.1467 130.435 21.8 130.435 21.32V20.08H128.995C127.835 20.08 127.255 20.4733 127.255 21.26V21.56C127.255 21.9467 127.375 22.2333 127.615 22.42C127.855 22.5933 128.195 22.68 128.635 22.68ZM140.602 24.74C139.815 24.74 139.115 24.6133 138.502 24.36C137.888 24.0933 137.375 23.7267 136.962 23.26C136.548 22.78 136.235 22.2 136.022 21.52C135.808 20.84 135.702 20.08 135.702 19.24C135.702 18.4 135.808 17.6467 136.022 16.98C136.235 16.3 136.548 15.72 136.962 15.24C137.375 14.76 137.888 14.3933 138.502 14.14C139.115 13.8867 139.815 13.76 140.602 13.76C141.668 13.76 142.555 14 143.262 14.48C143.982 14.96 144.495 15.6333 144.802 16.5L142.402 17.54C142.308 17.14 142.115 16.8 141.822 16.52C141.528 16.24 141.122 16.1 140.602 16.1C140.002 16.1 139.548 16.3 139.242 16.7C138.935 17.0867 138.782 17.6133 138.782 18.28V20.24C138.782 20.9067 138.935 21.4333 139.242 21.82C139.548 22.2067 140.002 22.4 140.602 22.4C141.135 22.4 141.555 22.26 141.862 21.98C142.182 21.6867 142.415 21.3067 142.562 20.84L144.862 21.84C144.515 22.84 143.975 23.5733 143.242 24.04C142.522 24.5067 141.642 24.74 140.602 24.74ZM146.694 9.7H149.654V18.44H149.774L151.074 16.5L153.174 14H156.454L152.954 18.02L156.854 24.5H153.334L150.974 20.06L149.654 21.54V24.5H146.694V9.7Z" fill="#1479F8"/>
</svg>
